<svg width="43" height="40" viewBox="0 0 43 40" fill="none" xmlns="http://www.w3.org/2000/svg">
<path d="M25.574 34.5544C26.187 34.2102 26.6327 33.6405 26.8129 32.9706C26.9931 32.3006 26.8931 31.5854 26.5348 30.9821L25.1842 28.7074C24.826 28.1041 24.2389 27.6623 23.5521 27.479C22.8653 27.2958 22.1351 27.3862 21.522 27.7303C16.899 30.3256 14.1977 25.7762 12.847 23.5016C11.4964 21.2269 8.79505 16.6776 13.4181 14.0823C14.0311 13.7382 14.4768 13.1685 14.6569 12.4985C14.8371 11.8286 14.7371 11.1133 14.3789 10.51L13.0283 8.23537C12.67 7.63209 12.083 7.19023 11.3962 7.007C10.7094 6.82377 9.97914 6.91417 9.36609 7.25832C3.58732 10.5024 1.47071 14.7235 8.22401 26.0968C14.9773 37.4702 19.7952 37.7984 25.574 34.5544Z" stroke="#080101" stroke-width="2" stroke-linecap="round" stroke-linejoin="round"/>
<path d="M37.8759 25.1612C39.1038 20.5864 38.4196 15.703 35.9738 11.5839C33.528 7.46485 29.5206 4.44706 24.832 3.19356M30.7988 23.273C31.1646 21.9143 31.2524 20.4957 31.0571 19.0981C30.8619 17.7005 30.3874 16.3514 29.6609 15.1278C28.9343 13.9042 27.9699 12.8302 26.8228 11.967C25.6756 11.1038 24.3682 10.4683 22.9751 10.097M23.7597 21.3711C24.0052 20.4557 23.8682 19.4786 23.3788 18.6544C22.8894 17.8302 22.0877 17.2263 21.1496 16.9753" stroke="#EB5550" stroke-width="2" stroke-linecap="round" stroke-linejoin="round"/>
</svg>
